<svg xmlns="http://www.w3.org/2000/svg" xmlns:xlink="http://www.w3.org/1999/xlink" width="500" zoomAndPan="magnify" viewBox="0 0 375 374.999991" height="500" preserveAspectRatio="xMidYMid meet" version="1.0"><defs><g/></defs><g fill="#ffffff" fill-opacity="1"><g transform="translate(247.481619, 97.010372)"><g><path d="M -108.1875 95.75 L -184.890625 0 L -132.265625 0 L -78.03125 72.484375 L -64.015625 56.875 L -64.015625 0 L -22.484375 0 L -22.484375 182.515625 L -64.015625 182.515625 L -64.015625 97.875 L -138.609375 182.515625 L -188.078125 182.515625 Z M -108.1875 95.75 "/></g></g></g><g fill="#ffffff" fill-opacity="1"><g transform="translate(160.778797, 278.385925)"><g><path d="M 134.375 -98.671875 C 157.300781 -92.671875 168.765625 -78.03125 168.765625 -54.75 C 168.765625 -43.46875 166.207031 -34.035156 161.09375 -26.453125 C 155.976562 -18.867188 149.539062 -13.003906 141.78125 -8.859375 C 134.019531 -4.710938 125.992188 -2.113281 117.703125 -1.0625 C 113.296875 -0.53125 109.238281 -0.21875 105.53125 -0.125 C 101.832031 -0.0390625 97.25 0 91.78125 0 L 22.484375 0 L 22.484375 -182.515625 L 92.046875 -182.515625 C 96.804688 -182.515625 100.773438 -182.46875 103.953125 -182.375 C 107.128906 -182.289062 111.007812 -181.984375 115.59375 -181.453125 C 130.40625 -179.691406 141.863281 -174.625 149.96875 -166.25 C 158.082031 -157.875 162.140625 -147.601562 162.140625 -135.4375 C 162.140625 -117.445312 152.882812 -105.191406 134.375 -98.671875 Z M 64.015625 -150.25 L 64.015625 -108.984375 L 88.875 -108.984375 C 93.28125 -108.984375 97.335938 -109.25 101.046875 -109.78125 C 106.691406 -110.65625 111.054688 -112.722656 114.140625 -115.984375 C 117.222656 -119.253906 118.765625 -123.882812 118.765625 -129.875 C 118.765625 -136.050781 117.132812 -140.679688 113.875 -143.765625 C 110.613281 -146.847656 106.25 -148.742188 100.78125 -149.453125 C 97.070312 -149.984375 92.835938 -150.25 88.078125 -150.25 Z M 105.015625 -32.796875 C 110.484375 -33.148438 115.242188 -35.265625 119.296875 -39.140625 C 123.347656 -43.023438 125.375 -48.40625 125.375 -55.28125 C 125.375 -62.6875 123.300781 -68.195312 119.15625 -71.8125 C 115.019531 -75.425781 110.039062 -77.5 104.21875 -78.03125 C 102.101562 -78.382812 99.988281 -78.5625 97.875 -78.5625 C 95.757812 -78.5625 93.640625 -78.5625 91.515625 -78.5625 L 64.015625 -78.5625 L 64.015625 -32.53125 L 93.109375 -32.53125 C 95.222656 -32.53125 97.296875 -32.53125 99.328125 -32.53125 C 101.359375 -32.53125 103.253906 -32.617188 105.015625 -32.796875 Z M 105.015625 -32.796875 "/></g></g></g></svg>